<?xml version="1.0" encoding="iso-8859-1"?>
<!-- Generator: Adobe Illustrator 16.0.0, SVG Export Plug-In . SVG Version: 6.00 Build 0)  -->
<!DOCTYPE svg PUBLIC "-//W3C//DTD SVG 1.1//EN" "http://www.w3.org/Graphics/SVG/1.1/DTD/svg11.dtd">
<svg version="1.1" id="Capa_1" xmlns="http://www.w3.org/2000/svg" xmlns:xlink="http://www.w3.org/1999/xlink" x="0px" y="0px"
	 width="264.6px" height="264.601px" viewBox="0 0 264.6 264.601" style="enable-background:new 0 0 264.6 264.601;"
	 xml:space="preserve">
<g>
	<g>
		<path d="M207.183,64.162l-32.706,28.073l-2.668-2.542c-3.228-3.085-8.354-2.967-11.449,0.269c-3.09,3.241-2.969,8.364,0.27,11.454
			l8.405,8.019L113.2,170.569c-4.021,4.398-3.082,5.568,2.096,2.615l51.302-29.314c5.179-2.964,9.514-10.193,9.683-16.155
			l2.689-8.804l15.862,15.135c1.566,1.492,3.581,2.235,5.59,2.235c2.131,0,4.267-0.833,5.858-2.505
			c3.085-3.238,2.97-8.369-0.269-11.456l-3.217-3.069l29.742-30.262L207.183,64.162z"/>
		<rect y="181.538" width="264.6" height="18.9"/>
	</g>
</g>
<g>
</g>
<g>
</g>
<g>
</g>
<g>
</g>
<g>
</g>
<g>
</g>
<g>
</g>
<g>
</g>
<g>
</g>
<g>
</g>
<g>
</g>
<g>
</g>
<g>
</g>
<g>
</g>
<g>
</g>
</svg>
